<svg version="1.1" xmlns="http://www.w3.org/2000/svg" xmlns:xlink="http://www.w3.org/1999/xlink" width="579.57958" height="369.10556" viewBox="0,0,579.57958,369.10556"><g transform="translate(49.78979,4.55277)"><g stroke-miterlimit="10"><g><g stroke-linecap="butt"><g stroke="none" stroke-width="0"><path d="M-7.63025,364.55278v-365.30441h492.25751v365.30442z" fill="#3f3f3f"/><path d="M-49.78979,76.52831v-81.08108h579.57958v81.08108z" fill="#272727"/></g><path d="M363.03979,48.69723c0,-8.04828 0,-20.34497 0,-24.5c0,-2.88962 2.3025,-6.25 6.25,-6.25c10.36565,0 56.85645,0 74.25,0c4.05387,0 8.5,3.42051 8.5,7.5c0,7.46823 0,18.32068 0,22.75c0,3.52208 -2.64468,8 -7,8c-18.32205,0 -65.91793,0 -75.25,0c-3.03556,0 -6.75,-2.8833 -6.75,-7.5z" fill="#585858" stroke="none" stroke-width="0"/><text transform="translate(379.03979,42.69722) scale(0.5,0.5)" font-size="40" xml:space="preserve" fill="#ffffff" stroke="none" stroke-width="1" font-family="Sans Serif" font-weight="normal" text-anchor="start"><tspan x="0" dy="0">Login</tspan></text><path d="M17.5,335.00001v-245h375v245z" fill="#2f2f2f" stroke="#000000" stroke-width="5"/></g><path d="M18.25,149l372.75,-1" fill="none" stroke="#000000" stroke-width="5" stroke-linecap="round"/><path d="M18.5,207.00001l371.75,-1" fill="none" stroke="#000000" stroke-width="5" stroke-linecap="round"/><path d="M17.75,268.50001l374,-1" fill="none" stroke="#000000" stroke-width="5" stroke-linecap="round"/><g stroke-linecap="butt"><path d="M400.75,107.60593c0,-3.38439 1.47772,-10.10593 2.98484,-10.10593c5.37053,0 32.51335,0 43.64325,0c3.44906,0 3.71088,6.56383 3.71088,9.91525c0,3.44675 -0.52868,10.48729 -3.79156,10.48729c-10.97841,0 -38.05887,0 -43.48191,0c-1.44983,0 -3.06551,-6.88045 -3.06551,-10.29661z" fill="#2f2f2f" stroke="#000000" stroke-width="2"/><text transform="translate(407.04237,111.41949) scale(0.38136,0.38136)" font-size="40" xml:space="preserve" fill="#ffffff" stroke="none" stroke-width="1" font-family="Sans Serif" font-weight="normal" text-anchor="start"><tspan x="0" dy="0">Time</tspan></text><path d="M401.13135,132.20339c0,-3.38439 1.47772,-10.10593 2.98484,-10.10593c5.37054,0 32.51335,0 43.64326,0c3.44906,0 3.71088,6.56383 3.71088,9.91525c0,3.44675 -0.52868,10.48729 -3.79156,10.48729c-10.97841,0 -38.05887,0 -43.48191,0c-1.44983,0 -3.06551,-6.88045 -3.06551,-10.29661z" fill="#2f2f2f" stroke="#000000" stroke-width="2"/><text transform="translate(409.52118,136.77966) scale(0.38136,0.38136)" font-size="40" xml:space="preserve" fill="#ffffff" stroke="none" stroke-width="1" font-family="Sans Serif" font-weight="normal" text-anchor="start"><tspan x="0" dy="0">Title</tspan></text></g><g stroke-linecap="butt"><path d="M400.75,165.60593c0,-3.38439 1.47772,-10.10593 2.98484,-10.10593c5.37053,0 32.51335,0 43.64325,0c3.44906,0 3.71089,6.56383 3.71089,9.91526c0,3.44675 -0.52868,10.48728 -3.79156,10.48728c-10.97841,0 -38.05887,0 -43.48192,0c-1.44983,0 -3.06551,-6.88044 -3.06551,-10.29661z" fill="#2f2f2f" stroke="#000000" stroke-width="2"/><text transform="translate(407.04237,169.41949) scale(0.38136,0.38136)" font-size="40" xml:space="preserve" fill="#ffffff" stroke="none" stroke-width="1" font-family="Sans Serif" font-weight="normal" text-anchor="start"><tspan x="0" dy="0">Time</tspan></text><path d="M401.13136,190.20339c0,-3.38439 1.47772,-10.10593 2.98484,-10.10593c5.37054,0 32.51335,0 43.64326,0c3.44906,0 3.71088,6.56382 3.71088,9.91525c0,3.44675 -0.52868,10.48729 -3.79155,10.48729c-10.97841,0 -38.05887,0 -43.48191,0c-1.44983,0 -3.06552,-6.88044 -3.06552,-10.29661z" fill="#2f2f2f" stroke="#000000" stroke-width="2"/><text transform="translate(409.52119,194.77966) scale(0.38136,0.38136)" font-size="40" xml:space="preserve" fill="#ffffff" stroke="none" stroke-width="1" font-family="Sans Serif" font-weight="normal" text-anchor="start"><tspan x="0" dy="0">Title</tspan></text></g><g stroke-linecap="butt"><path d="M401,226.60593c0,-3.38439 1.47772,-10.10593 2.98484,-10.10593c5.37053,0 32.51335,0 43.64325,0c3.44906,0 3.71089,6.56383 3.71089,9.91526c0,3.44675 -0.52868,10.48728 -3.79156,10.48728c-10.97841,0 -38.05887,0 -43.48192,0c-1.44983,0 -3.06551,-6.88044 -3.06551,-10.29661z" fill="#2f2f2f" stroke="#000000" stroke-width="2"/><text transform="translate(407.29237,230.41949) scale(0.38136,0.38136)" font-size="40" xml:space="preserve" fill="#ffffff" stroke="none" stroke-width="1" font-family="Sans Serif" font-weight="normal" text-anchor="start"><tspan x="0" dy="0">Time</tspan></text><path d="M401.38136,251.20339c0,-3.38439 1.47772,-10.10593 2.98484,-10.10593c5.37054,0 32.51335,0 43.64326,0c3.44906,0 3.71088,6.56382 3.71088,9.91525c0,3.44675 -0.52868,10.48729 -3.79155,10.48729c-10.97841,0 -38.05887,0 -43.48191,0c-1.44983,0 -3.06552,-6.88044 -3.06552,-10.29661z" fill="#2f2f2f" stroke="#000000" stroke-width="2"/><text transform="translate(409.77119,255.77966) scale(0.38136,0.38136)" font-size="40" xml:space="preserve" fill="#ffffff" stroke="none" stroke-width="1" font-family="Sans Serif" font-weight="normal" text-anchor="start"><tspan x="0" dy="0">Title</tspan></text></g><g stroke-linecap="butt"><path d="M401.5,286.60593c0,-3.38439 1.47772,-10.10593 2.98484,-10.10593c5.37053,0 32.51335,0 43.64325,0c3.44906,0 3.71089,6.56383 3.71089,9.91526c0,3.44675 -0.52868,10.48728 -3.79156,10.48728c-10.97841,0 -38.05887,0 -43.48192,0c-1.44983,0 -3.06551,-6.88044 -3.06551,-10.29661z" fill="#2f2f2f" stroke="#000000" stroke-width="2"/><text transform="translate(407.79237,290.41949) scale(0.38136,0.38136)" font-size="40" xml:space="preserve" fill="#ffffff" stroke="none" stroke-width="1" font-family="Sans Serif" font-weight="normal" text-anchor="start"><tspan x="0" dy="0">Time</tspan></text><path d="M401.88136,311.20339c0,-3.38439 1.47772,-10.10593 2.98484,-10.10593c5.37054,0 32.51335,0 43.64326,0c3.44906,0 3.71088,6.56383 3.71088,9.91525c0,3.44675 -0.52868,10.48729 -3.79155,10.48729c-10.97841,0 -38.05887,0 -43.48191,0c-1.44983,0 -3.06552,-6.88045 -3.06552,-10.29661z" fill="#2f2f2f" stroke="#000000" stroke-width="2"/><text transform="translate(410.27119,315.77966) scale(0.38136,0.38136)" font-size="40" xml:space="preserve" fill="#ffffff" stroke="none" stroke-width="1" font-family="Sans Serif" font-weight="normal" text-anchor="start"><tspan x="0" dy="0">Title</tspan></text></g><path d="M88.71021,89.94723l1,242.5" fill="none" stroke="#000000" stroke-width="5" stroke-linecap="round"/></g></g></g></svg>