<svg version="1.1" xmlns="http://www.w3.org/2000/svg" xmlns:xlink="http://www.w3.org/1999/xlink" width="68.50001" height="63.5" viewBox="0,0,68.50001,63.5"><g transform="translate(-205.74999,-147)"><g stroke-miterlimit="10"><g><path d="M206.75,163.75c0,-4.43731 1.93746,-13.25 3.91346,-13.25c7.04136,0 42.62862,0 57.22115,0c4.5221,0 4.86538,8.60591 4.86538,13c0,4.51907 -0.69316,13.75 -4.97115,13.75c-14.39391,0 -49.89941,0 -57.00962,0c-1.90089,0 -4.01923,-9.02103 -4.01923,-13.5z" fill="#2f2f2f" stroke="#000000" stroke-width="2"/><text transform="translate(215,168.75) scale(0.5,0.5)" font-size="40" xml:space="preserve" fill="#ffffff" stroke="none" stroke-width="1" font-family="Sans Serif" font-weight="normal" text-anchor="start"><tspan x="0" dy="0">Time</tspan></text><path d="M207.25,196c0,-4.43731 1.93746,-13.25 3.91346,-13.25c7.04137,0 42.62862,0 57.22116,0c4.5221,0 4.86538,8.60591 4.86538,13c0,4.51907 -0.69316,13.75 -4.97115,13.75c-14.39391,0 -49.89941,0 -57.00962,0c-1.90089,0 -4.01923,-9.02103 -4.01923,-13.5z" fill="#2f2f2f" stroke="#000000" stroke-width="2"/><text transform="translate(218.25,202) scale(0.5,0.5)" font-size="40" xml:space="preserve" fill="#ffffff" stroke="none" stroke-width="1" font-family="Sans Serif" font-weight="normal" text-anchor="start"><tspan x="0" dy="0">Title</tspan></text></g></g></g></svg>