<svg version="1.1" xmlns="http://www.w3.org/2000/svg" xmlns:xlink="http://www.w3.org/1999/xlink" width="579.57958" height="369.10556" viewBox="0,0,579.57958,369.10556"><g transform="translate(49.78979,4.55277)"><g stroke-miterlimit="10"><g><g stroke-linecap="butt"><g stroke="none" stroke-width="0"><path d="M-7.63025,364.55278v-365.30441h492.25751v365.30442z" fill="#3f3f3f"/><path d="M-49.78979,76.52831v-81.08108h579.57958v81.08108z" fill="#272727"/></g><path d="M363.03979,48.69723c0,-8.04828 0,-20.34497 0,-24.5c0,-2.88962 2.3025,-6.25 6.25,-6.25c10.36565,0 56.85645,0 74.25,0c4.05387,0 8.5,3.42051 8.5,7.5c0,7.46823 0,18.32068 0,22.75c0,3.52208 -2.64468,8 -7,8c-18.32205,0 -65.91793,0 -75.25,0c-3.03556,0 -6.75,-2.8833 -6.75,-7.5z" fill="#585858" stroke="none" stroke-width="0"/><text transform="translate(379.03979,42.69722) scale(0.5,0.5)" font-size="40" xml:space="preserve" fill="#ffffff" stroke="none" stroke-width="1" font-family="Sans Serif" font-weight="normal" text-anchor="start"><tspan x="0" dy="0">Login</tspan></text><path d="M17.5,335.00001v-245h375v245z" fill="#2f2f2f" stroke="#000000" stroke-width="5"/></g><path d="M18.25,149l372.75,-1" fill="none" stroke="#000000" stroke-width="5" stroke-linecap="round"/><path d="M390.25,206.00001l-371.75,1" fill="none" stroke="#000000" stroke-width="5" stroke-linecap="round"/><path d="M17.75,268.50001l374,-1" fill="none" stroke="#000000" stroke-width="5" stroke-linecap="round"/><path d="M88.71021,89.94723l1,242.5" fill="none" stroke="#000000" stroke-width="5" stroke-linecap="round"/></g></g></g></svg>