<svg version="1.1" xmlns="http://www.w3.org/2000/svg" xmlns:xlink="http://www.w3.org/1999/xlink" width="579.57958" height="369.10556" viewBox="0,0,579.57958,369.10556"><g transform="translate(49.78979,4.55277)"><g stroke-miterlimit="10"><g><g stroke-linecap="butt"><g stroke="none" stroke-width="0"><path d="M-7.63025,364.55278v-365.30441h492.25751v365.30442z" fill="#3f3f3f"/><path d="M-49.78979,76.52831v-81.08108h579.57958v81.08108z" fill="#272727"/></g><path d="M363.03979,48.69723c0,-8.04828 0,-20.34497 0,-24.5c0,-2.88962 2.3025,-6.25 6.25,-6.25c10.36565,0 56.85645,0 74.25,0c4.05387,0 8.5,3.42051 8.5,7.5c0,7.46823 0,18.32068 0,22.75c0,3.52208 -2.64468,8 -7,8c-18.32205,0 -65.91793,0 -75.25,0c-3.03556,0 -6.75,-2.8833 -6.75,-7.5z" fill="#585858" stroke="none" stroke-width="0"/><text transform="translate(379.03979,42.69722) scale(0.5,0.5)" font-size="40" xml:space="preserve" fill="#ffffff" stroke="none" stroke-width="1" font-family="Sans Serif" font-weight="normal" text-anchor="start"><tspan x="0" dy="0">Login</tspan></text><path d="M17.5,335.00001v-245h375v245z" fill="#2f2f2f" stroke="#000000" stroke-width="5"/></g><path d="M18.25,149l372.75,-1" fill="none" stroke="#000000" stroke-width="5" stroke-linecap="round"/><path d="M18.5,207.00001l371.75,-1" fill="none" stroke="#000000" stroke-width="5" stroke-linecap="round"/><path d="M17.75,268.50001l374,-1" fill="none" stroke="#000000" stroke-width="5" stroke-linecap="round"/><g stroke="#000000" stroke-width="5" stroke-linecap="butt"><path d="M126.31171,80.76528c0,0 0,-5.61601 0,-7.72999c0,-0.55734 0.54471,-8.52488 10.32404,-8.52488c24.89,0 154.54339,0 203.84495,0c14.67463,0 13.39929,7.17976 13.39929,7.81527c0,2.22557 0,8.43961 0,8.43961z" fill="#000000"/><path d="M126.09205,299.8132v-218.78187h227.56829v218.78187z" fill="#2f2f2f"/></g><path d="M328.75001,78.5618c0,-3.48064 0,-8.84757 0,-10.875c0,-1.54086 1.63712,-3.45833 3.02083,-3.45833c1.98632,0 7.6004,0 11.25,0c1.93295,0 3.31484,1.67779 3.31484,3.08333c0,1.82912 0,7.92837 0,11.5c0,2.36294 -1.90398,2.91667 -3.43984,2.91667c-1.9715,0 -7.1151,0 -10.625,0c-2.03501,0 -3.52083,-1.31698 -3.52083,-3.16667z" fill="#ff0000" stroke="none" stroke-width="0" stroke-linecap="butt"/><text transform="translate(332.14584,78.1868) scale(0.5,0.5)" font-size="40" xml:space="preserve" fill="#ffffff" stroke="none" stroke-width="1" stroke-linecap="butt" font-family="Sans Serif" font-weight="normal" text-anchor="start"><tspan x="0" dy="0">x</tspan></text><path d="M138.75,126.41181c0,-3.23876 0,-6.4047 0,-8c0,-1.25952 1.29007,-3.75 4.125,-3.75c9.22286,0 59.49218,0 73.5,0c2.30226,0 4.875,2.54469 4.875,4.75c0,2.46438 0,5.69152 0,7.25c0,1.991 -2.13154,4 -4.125,4c-13.58471,0 -66.196,0 -74.5,0c-2.11402,0 -3.875,-1.8759 -3.875,-4.25z" fill="#000000" stroke="none" stroke-width="NaN" stroke-linecap="butt"/><path d="M139.08334,178.07848c0,-3.23876 0,-6.4047 0,-8c0,-1.25952 1.29007,-3.75 4.125,-3.75c9.22286,0 59.49218,0 73.5,0c2.30226,0 4.875,2.54469 4.875,4.75c0,2.46438 0,5.69152 0,7.25c0,1.991 -2.13154,4 -4.125,4c-13.58471,0 -66.196,0 -74.5,0c-2.11402,0 -3.875,-1.8759 -3.875,-4.25z" fill="#000000" stroke="none" stroke-width="NaN" stroke-linecap="butt"/><path d="M198.75,277.74514c0,-3.23876 0,-6.4047 0,-8c0,-1.25952 1.29007,-3.75 4.125,-3.75c9.22286,0 59.49217,0 73.5,0c2.30226,0 4.875,2.54469 4.875,4.75c0,2.46438 0,5.69151 0,7.25c0,1.991 -2.13155,4 -4.125,4c-13.58471,0 -66.196,0 -74.5,0c-2.11402,0 -3.875,-1.8759 -3.875,-4.25z" fill="#000000" stroke="none" stroke-width="NaN" stroke-linecap="butt"/><text transform="translate(147.5,126.66181) scale(0.31221,0.31221)" font-size="40" xml:space="preserve" fill="#ffffff" stroke="none" stroke-width="1" stroke-linecap="butt" font-family="Sans Serif" font-weight="normal" text-anchor="start"><tspan x="0" dy="0">Username</tspan></text><text transform="translate(147.5,177.99515) scale(0.31221,0.31221)" font-size="40" xml:space="preserve" fill="#ffffff" stroke="none" stroke-width="1" stroke-linecap="butt" font-family="Sans Serif" font-weight="normal" text-anchor="start"><tspan x="0" dy="0">Password</tspan></text><text transform="translate(221.83334,277.66181) scale(0.31221,0.31221)" font-size="40" xml:space="preserve" fill="#ffffff" stroke="none" stroke-width="1" stroke-linecap="butt" font-family="Sans Serif" font-weight="normal" text-anchor="start"><tspan x="0" dy="0">Login</tspan></text><path d="M88.71021,89.94723l1,242.5" fill="none" stroke="#000000" stroke-width="5" stroke-linecap="round"/></g></g></g></svg>