<svg version="1.1" xmlns="http://www.w3.org/2000/svg" xmlns:xlink="http://www.w3.org/1999/xlink" width="232.8159" height="245.87639" viewBox="0,0,232.8159,245.87639"><g transform="translate(-123.59204,-54.275)"><g stroke-miterlimit="10"><g stroke="#000000" stroke-width="5"><path d="M126.31171,78.60349c0,0 0,-5.61601 0,-7.72999c0,-0.55734 0.54471,-8.52488 10.32404,-8.52488c24.89,0 154.54339,0 203.84495,0c14.67463,0 13.39929,7.17976 13.39929,7.81527c0,2.22557 0,8.43961 0,8.43961z" fill="#000000"/><path d="M126.09205,297.65139v-218.78187h227.56829v218.78187z" fill="#2f2f2f"/></g><path d="M328.75001,76.4c0,-3.48064 0,-8.84757 0,-10.875c0,-1.54086 1.63712,-3.45833 3.02083,-3.45833c1.98632,0 7.6004,0 11.25,0c1.93295,0 3.31484,1.67779 3.31484,3.08333c0,1.82912 0,7.92837 0,11.5c0,2.36294 -1.90398,2.91667 -3.43984,2.91667c-1.9715,0 -7.1151,0 -10.625,0c-2.03501,0 -3.52083,-1.31698 -3.52083,-3.16667z" fill="#ff0000" stroke="none" stroke-width="0"/><text transform="translate(332.14583,76.025) scale(0.5,0.5)" font-size="40" xml:space="preserve" fill="#ffffff" stroke="none" stroke-width="1" font-family="Sans Serif" font-weight="normal" text-anchor="start"><tspan x="0" dy="0">x</tspan></text><path d="M138.75,124.25001c0,-3.23876 0,-6.4047 0,-8c0,-1.25952 1.29007,-3.75 4.125,-3.75c9.22286,0 59.49218,0 73.5,0c2.30226,0 4.875,2.54469 4.875,4.75c0,2.46438 0,5.69151 0,7.25c0,1.991 -2.13154,4 -4.125,4c-13.58471,0 -66.196,0 -74.5,0c-2.11402,0 -3.875,-1.8759 -3.875,-4.25z" fill="#000000" stroke="none" stroke-width="none"/><path d="M139.08333,175.91667c0,-3.23876 0,-6.40469 0,-8c0,-1.25953 1.29007,-3.75 4.125,-3.75c9.22286,0 59.49218,0 73.5,0c2.30226,0 4.875,2.54469 4.875,4.75c0,2.46438 0,5.69151 0,7.25c0,1.991 -2.13154,4 -4.125,4c-13.58471,0 -66.196,0 -74.5,0c-2.11402,0 -3.875,-1.8759 -3.875,-4.25z" fill="#000000" stroke="none" stroke-width="none"/><path d="M198.75,275.58334c0,-3.23876 0,-6.40469 0,-8c0,-1.25952 1.29007,-3.75 4.125,-3.75c9.22286,0 59.49218,0 73.5,0c2.30226,0 4.875,2.54469 4.875,4.75c0,2.46438 0,5.69152 0,7.25c0,1.991 -2.13155,4 -4.125,4c-13.58471,0 -66.196,0 -74.5,0c-2.11402,0 -3.875,-1.8759 -3.875,-4.25z" fill="#000000" stroke="none" stroke-width="none"/><text transform="translate(147.5,124.5) scale(0.31221,0.31221)" font-size="40" xml:space="preserve" fill="#ffffff" stroke="none" stroke-width="1" font-family="Sans Serif" font-weight="normal" text-anchor="start"><tspan x="0" dy="0">Username</tspan></text><text transform="translate(147.5,175.83334) scale(0.31221,0.31221)" font-size="40" xml:space="preserve" fill="#ffffff" stroke="none" stroke-width="1" font-family="Sans Serif" font-weight="normal" text-anchor="start"><tspan x="0" dy="0">Password</tspan></text><text transform="translate(221.83333,275.50001) scale(0.31221,0.31221)" font-size="40" xml:space="preserve" fill="#ffffff" stroke="none" stroke-width="1" font-family="Sans Serif" font-weight="normal" text-anchor="start"><tspan x="0" dy="0">Login</tspan></text></g></g></svg>